<svg width="200" height="200" viewBox="0 0 200 200" fill="none" xmlns="http://www.w3.org/2000/svg">
<path d="M34 61.4005V157.557C34.03 162.289 35.974 164.573 40.843 164.573L65.806 160.828C67.624 169.787 73.546 176.354 80.57 176.354C88.728 176.354 95.4 167.496 95.881 156.317L120.375 152.643C121.814 159.821 126.917 165.128 132.992 165.128C140.111 165.128 145.894 157.842 146.013 148.797L161.275 146.506C164.046 146.656 166.279 144.682 166.279 141.334V115.261V79.8416C166.279 75.0326 164.341 72.7125 159.433 72.7125L124.302 67.9176L39.002 56.2755C36.247 56.1265 34.023 58.0815 34 61.4005Z" fill="url(#paint0_linear_2866_474)"/>
<path d="M102.17 76.0694C101.592 75.6744 100.893 75.4454 100.139 75.4454C99.3869 75.4454 98.6859 75.6744 98.1079 76.0694C97.8009 76.2794 97.5279 76.5344 97.2969 76.8274C96.8149 77.4404 96.5269 78.2154 96.5269 79.0564C96.5269 79.7244 96.7089 80.3524 97.0269 80.8894C97.2969 81.3494 97.6669 81.7434 98.1069 82.0424C98.6849 82.4374 99.3859 82.6674 100.138 82.6674C100.892 82.6674 101.591 82.4374 102.169 82.0424C102.61 81.7434 102.98 81.3494 103.25 80.8894C103.567 80.3524 103.749 79.7244 103.749 79.0564C103.749 78.2144 103.462 77.4404 102.979 76.8274C102.75 76.5334 102.479 76.2794 102.17 76.0694ZM87.4159 108.027C87.5979 107.702 87.8519 107.519 88.1449 107.422L98.1079 102.357V86.4604C95.4379 85.7304 93.3459 83.5914 92.6839 80.8914H56.5279V96.7764L66.2289 101.711C66.5449 101.813 66.8169 102.014 66.9589 102.315C67.0639 102.508 67.0959 102.717 67.0679 102.922L67.0619 116.094C67.1239 116.387 67.0659 116.699 66.8409 116.963C66.6959 117.152 66.4929 117.288 66.2629 117.371L55.0809 123.05C54.8519 123.219 54.5629 123.322 54.2429 123.313C53.9229 123.323 53.6319 123.219 53.4049 123.05L42.2229 117.371C41.9939 117.288 41.7889 117.152 41.6449 116.963C41.4199 116.699 41.3639 116.387 41.4259 116.094L41.4179 102.946C41.3849 102.736 41.4149 102.518 41.5219 102.32C41.7019 101.995 41.9559 101.811 42.2489 101.715L52.4619 96.5234V78.8634C52.4619 77.7814 53.4129 76.8314 54.4929 76.8314H92.7909C93.5539 74.3204 95.5649 72.3524 98.1059 71.6574V53.3554L86.5139 47.4674C86.2559 47.3744 86.0239 47.2194 85.8599 47.0054C85.6059 46.7054 85.5409 46.3534 85.6119 46.0214L85.6039 31.1184C85.5669 30.8814 85.5979 30.6354 85.7189 30.4094C85.9219 30.0394 86.2109 29.8324 86.5409 29.7224L99.2339 23.2714C99.4859 23.0964 99.7959 22.9934 100.136 23.0004C100.478 22.9924 100.788 23.0974 101.041 23.2714L113.722 29.7194C114.077 29.8334 114.386 30.0624 114.548 30.4024C114.669 30.6224 114.704 30.8614 114.671 31.0914L114.663 46.0214C114.735 46.3534 114.669 46.7074 114.413 47.0054C114.251 47.2194 114.02 47.3744 113.761 47.4674L102.167 53.3554V71.6534C104.707 72.3474 106.722 74.3164 107.483 76.8274H145.78C146.86 76.8274 147.813 77.7774 147.813 78.8594V96.5194L158.016 101.708C158.331 101.81 158.604 102.011 158.746 102.312C158.851 102.505 158.883 102.714 158.855 102.919L158.847 116.091C158.909 116.384 158.851 116.696 158.626 116.96C158.485 117.149 158.28 117.285 158.048 117.368L146.87 123.047C146.64 123.216 146.35 123.319 146.03 123.31C145.71 123.32 145.421 123.216 145.19 123.047L134.016 117.368C133.786 117.285 133.58 117.149 133.438 116.96C133.215 116.696 133.157 116.384 133.217 116.091L133.211 102.943C133.178 102.733 133.207 102.515 133.313 102.317C133.493 101.992 133.747 101.808 134.04 101.712L143.752 96.7744V80.8904H107.596C106.934 83.5904 104.844 85.7294 102.172 86.4594V102.356L112.126 107.418C112.441 107.521 112.712 107.723 112.855 108.022C112.959 108.216 112.992 108.426 112.964 108.629L112.956 121.803C113.018 122.096 112.961 122.408 112.737 122.67C112.592 122.859 112.387 122.998 112.159 123.078L100.977 128.757C100.747 128.926 100.457 129.029 100.139 129.021C99.8189 129.03 99.5299 128.926 99.2989 128.757L88.1189 123.078C87.8889 122.998 87.6849 122.859 87.5399 122.67C87.3159 122.406 87.2579 122.096 87.3199 121.803L87.3139 108.654C87.2809 108.446 87.3099 108.227 87.4169 108.028L87.4159 108.027Z" fill="#03D2E4"/>
<path d="M34 135.257V157.556C34.03 162.288 35.974 164.572 40.843 164.572L65.806 160.827C67.624 169.786 73.546 176.353 80.57 176.353C88.728 176.353 95.4 167.495 95.881 156.316L120.375 152.642C121.814 159.82 126.917 165.127 132.992 165.127C140.111 165.127 145.894 157.841 146.013 148.796L161.275 146.505C164.046 146.655 166.279 144.681 166.279 141.333V136.431C146.804 132.853 122.74 130.738 96.693 130.738C73.64 130.737 52.138 132.396 34 135.257Z" fill="url(#paint1_linear_2866_474)"/>
<path d="M97.1714 115.255C97.1714 113.617 98.4994 112.286 100.138 112.286C101.779 112.286 103.107 113.617 103.107 115.255C103.107 116.895 101.779 118.223 100.138 118.223C98.4994 118.223 97.1714 116.895 97.1714 115.255ZM143.066 109.547C143.066 107.905 144.394 106.578 146.035 106.578C147.674 106.578 149.002 107.905 149.002 109.547C149.002 111.186 147.674 112.514 146.035 112.514C144.394 112.514 143.066 111.186 143.066 109.547ZM51.2754 109.547C51.2754 107.905 52.6034 106.578 54.2444 106.578C55.8834 106.578 57.2134 107.905 57.2134 109.547C57.2134 111.186 55.8834 112.514 54.2444 112.514C52.6034 112.514 51.2754 111.186 51.2754 109.547ZM95.6404 38.6035C95.6404 36.1175 97.6544 34.1035 100.138 34.1035C102.624 34.1035 104.636 36.1175 104.636 38.6035C104.636 41.0855 102.624 43.0995 100.138 43.0995C97.6544 43.0995 95.6404 41.0855 95.6404 38.6035Z" fill="#80FFFF"/>
<defs>
<linearGradient id="paint0_linear_2866_474" x1="167.054" y1="114.722" x2="33.1305" y2="116.705" gradientUnits="userSpaceOnUse">
<stop stop-color="#3647D3"/>
<stop offset="1" stop-color="#8C63CF"/>
</linearGradient>
<linearGradient id="paint1_linear_2866_474" x1="34.5178" y1="149.354" x2="162.493" y2="158.03" gradientUnits="userSpaceOnUse">
<stop stop-color="#1B2BBB"/>
<stop offset="0.1613" stop-color="#1547C5"/>
<stop offset="0.378" stop-color="#0F66D0"/>
<stop offset="0.5889" stop-color="#0A7DD8"/>
<stop offset="0.7892" stop-color="#078ADC"/>
<stop offset="0.9677" stop-color="#068FDE"/>
</linearGradient>
</defs>
</svg>
